<?xml version="1.0" encoding="UTF-8" standalone="no"?>
<!-- Created with Inkscape (http://www.inkscape.org/) -->

<svg
   width="210mm"
   height="297mm"
   viewBox="0 0 210 297"
   version="1.1"
   id="svg912"
   inkscape:version="1.1 (c68e22c387, 2021-05-23)"
   sodipodi:docname="evernote logo.svg"
   xmlns:inkscape="http://www.inkscape.org/namespaces/inkscape"
   xmlns:sodipodi="http://sodipodi.sourceforge.net/DTD/sodipodi-0.dtd"
   xmlns="http://www.w3.org/2000/svg"
   xmlns:svg="http://www.w3.org/2000/svg">
  <sodipodi:namedview
     id="namedview914"
     pagecolor="#ffffff"
     bordercolor="#999999"
     borderopacity="1"
     inkscape:pageshadow="0"
     inkscape:pageopacity="0"
     inkscape:pagecheckerboard="0"
     inkscape:document-units="mm"
     showgrid="false"
     inkscape:zoom="4.853367"
     inkscape:cx="386.43276"
     inkscape:cy="385.40255"
     inkscape:window-width="1920"
     inkscape:window-height="949"
     inkscape:window-x="-9"
     inkscape:window-y="43"
     inkscape:window-maximized="1"
     inkscape:current-layer="layer1" />
  <defs
     id="defs909" />
  <g
     inkscape:label="Layer 1"
     inkscape:groupmode="layer"
     id="layer1">
    <path
       style="fill:#42dce6;stroke:#000000;stroke-width:0.264583px;stroke-linecap:butt;stroke-linejoin:miter;stroke-opacity:1;fill-opacity:1"
       d="m 88.096912,96.601316 c -0.134363,-2.456941 8.332453,2.427892 6.977976,-7.414098 -1.018518,-0.623765 6.712442,-2.262829 7.632162,0.872251 12.48395,-0.147552 10.13491,2.990841 11.12114,13.519821 -1.21491,13.62984 -3.15521,13.86357 -4.14317,14.61014 -1.10759,0.66591 -5.22357,0.89446 -7.52313,0.27257 -1.68656,0.25618 -2.217257,-4.63475 -1.19934,-6.16024 0.55682,-1.09551 1.86005,-1.5939 3.87059,-1.52643 1.47767,0.28877 -0.34822,1.08449 0.87225,2.18062 -0.0754,1.16028 -1.97271,0.22607 -2.99834,0.43612 -0.35942,3.32949 3.01828,2.66297 4.79735,1.96256 0.98653,-1.70049 1.44163,-2.90673 -0.21806,-6.10573 -2.64101,-0.40078 -6.01637,1.06769 -7.19603,-3.05287 0.32367,2.81144 -0.880267,4.297 -4.361235,3.81608 0,0 -6.127072,0.7403 -7.032491,-6.10572 -1.27271,-4.801434 -0.817731,-9.049562 -0.599672,-7.305074 z"
       id="path1291"
       sodipodi:nodetypes="cccccccccccccccc" />
    <path
       style="fill:none;stroke:#000000;stroke-width:0.264583px;stroke-linecap:butt;stroke-linejoin:miter;stroke-opacity:1"
       d="M 88.096912,96.601318 Z"
       id="path1293" />
    <path
       style="fill:none;stroke:#000000;stroke-width:0.264583px;stroke-linecap:butt;stroke-linejoin:miter;stroke-opacity:1"
       d="M 88.096912,96.601316 Z"
       id="path1295" />
    <path
       style="fill:none;stroke:#000000;stroke-width:0.264583px;stroke-linecap:butt;stroke-linejoin:miter;stroke-opacity:1"
       d="M 88.096912,96.601316 Z"
       id="path1297" />
    <path
       style="fill:#e4f3e4;stroke:#000000;stroke-width:0.264583px;stroke-linecap:butt;stroke-linejoin:miter;stroke-opacity:1;fill-opacity:1"
       d="m 106.35958,101.1261 2.72577,0.49064 c -0.12339,-0.67236 -0.0215,-1.34471 -1.25385,-2.017071 -1.19591,-0.0957 -1.25028,0.787051 -1.47192,1.526431 z"
       id="path8271"
       sodipodi:nodetypes="cccc" />
    <path
       style="fill:#49dce6;stroke:#000000;stroke-width:0.264583px;stroke-linecap:butt;stroke-linejoin:miter;stroke-opacity:1;fill-opacity:1"
       d="m 87.878853,94.856828 5.887667,-5.778635 c 0.282566,1.674212 0.370886,4.648622 -0.490639,4.851873 -0.674986,1.19786 -3.770971,0.268335 -5.397028,0.926762 z"
       id="path8439"
       sodipodi:nodetypes="cccc" />
  </g>
</svg>
